# WaveFront *.obj file (generated by CINEMA 4D)

mtllib ./ico.mtl

v 0 -0.85065215826035 1.42573189735413
v 0 -0.85065215826035 0.37426805496216
v 0.85065215826035 -0.52573192119598 0.89999997615814
v 0.85065215826035 0.52573192119598 0.89999997615814
v 0 0.85065215826035 1.42573189735413
v 0 0.85065215826035 0.37426805496216
v -0.85065215826035 0.52573192119598 0.89999997615814
v -0.85065215826035 -0.52573192119598 0.89999997615814
v 0.52573192119598 0 1.75065219402313
v -0.52573192119598 0 1.75065219402313
v -0.52573192119598 0 0.04934783652425
v 0.52573192119598 0 0.04934783652425
# 12 vertices

vn 0 -0.35682207345963 0.93417233228683
vn 0 0 0
vn 0.57735025882721 -0.57735031843185 0.57735031843185
vn 0.93417233228683 0 0.35682207345963
vn 0.57735025882721 0.57735031843185 0.57735031843185
vn 0 0.35682207345963 0.93417233228683
vn -0.57735031843185 0.57735031843185 0.57735025882721
vn -0.93417233228683 0 0.35682207345963
vn -0.57735025882721 -0.57735031843185 0.57735031843185
vn 0 -0.35682207345963 -0.93417233228683
vn 0.57735031843185 -0.57735025882721 -0.57735031843185
vn 0.93417233228683 0 -0.35682207345963
vn 0.57735031843185 0.57735025882721 -0.57735031843185
vn 0 0.35682207345963 -0.93417233228683
vn -0.57735031843185 0.57735031843185 -0.57735025882721
vn -0.93417233228683 0 -0.35682207345963
vn -0.57735031843185 -0.57735025882721 -0.57735031843185
vn -0.35682207345963 -0.93417233228683 0
vn 0.35682207345963 -0.93417233228683 0
vn 0.35682207345963 0.93417233228683 0
vn -0.35682207345963 0.93417233228683 0
# 21 normals

o Platonic
usemtl Plastic 0
f 1//1 9//1 10//1
f 1//3 3//3 9//3
f 3//4 4//4 9//4
f 4//5 5//5 9//5
f 5//6 10//6 9//6
f 7//7 10//7 5//7
f 8//8 10//8 7//8
f 8//9 1//9 10//9
f 2//10 11//10 12//10
f 2//11 12//11 3//11
f 12//12 4//12 3//12
f 12//13 6//13 4//13
f 12//14 11//14 6//14
f 11//15 7//15 6//15
f 11//16 8//16 7//16
f 11//17 2//17 8//17
f 1//18 8//18 2//18
f 1//19 2//19 3//19
f 4//20 6//20 5//20
f 6//21 7//21 5//21

